#!OML:ASF F:\VICON\USERDATA\INSTALL\rory3\rory3.ASF
:FULLY-SPECIFIED
:DEGREES
2873
root -11.224 17.7557 15.5711 -576.705 99.786 -213.949
lowerback 12.1894 2.42931 2.71823
upperback 1.52727 3.72643 1.36525
thorax -5.14257 1.82114 -0.710121
lowerneck -18.0966 -2.36993 -9.12441
upperneck 30.793 -1.13544 4.21815
head 13.5284 -0.762148 3.11343
rclavicle -2.08724e-015 -1.98785e-015
rhumerus -34.8786 -5.22013 -79.301
rradius 32.1565
rwrist 1.60668
rhand -18.3012 7.23523
rfingers 7.12502
rthumb 7.97967 -22.5941
lclavicle -2.08724e-015 -1.98785e-015
lhumerus -36.0794 13.4108 71.6683
lradius 30.8088
lwrist -4.29848
lhand -23.1624 28.2224
lfingers 7.12502
lthumb 3.28626 58.1768
rfemur -3.03441 -1.98522 23.2333
rtibia 23.897
rfoot -16.7259 10.9992
rtoes -1.03948
lfemur -16.5159 -4.03359 -16.0012
ltibia 56.7769
lfoot 2.48605 -23.9989
ltoes 5.87786
2874
root -11.161 17.7658 15.6054 -579.183 99.1803 -216.501
lowerback 12.125 2.46597 2.76415
upperback 1.53068 3.78044 1.38559
thorax -5.10023 1.84816 -0.719755
lowerneck -18.6431 -2.44772 -8.90801
upperneck 31.3886 -1.11878 3.86469
head 13.902 -0.780341 2.95888
rclavicle -2.03754e-015 1.78906e-015
rhumerus -34.4008 -5.53013 -79.0043
rradius 31.8339
rwrist 1.8718
rhand -18.7346 7.23441
rfingers 7.12502
rthumb 7.56129 -22.6104
lclavicle -2.03754e-015 1.78906e-015
lhumerus -36.2508 14.0956 71.2788
lradius 30.4625
lwrist -4.99652
lhand -22.8092 27.9755
lfingers 7.12502
lthumb 3.62732 57.9244
rfemur -2.59584 -2.22814 23.3571
rtibia 23.5417
rfoot -16.8412 10.3633
rtoes -3.49593
lfemur -17.3714 -3.27615 -15.9402
ltibia 56.8488
lfoot -0.0902581 -22.2915
ltoes 4.19867
2875
root -11.096 17.7739 15.6358 -582.017 98.6229 -219.394
lowerback 12.0428 2.50943 2.87853
upperback 1.54389 3.84859 1.36078
thorax -5.0296 1.88097 -0.815501
lowerneck -19.5729 -2.62138 -8.44516
upperneck 32.4229 -1.19594 3.28899
head 14.5698 -0.844237 2.66532
rclavicle -3.60297e-015 -4.37326e-015
rhumerus -33.979 -6.15006 -78.6993
rradius 31.5225
rwrist 2.48371
rhand -18.696 7.34401
rfingers 7.12502
rthumb 7.5986 -22.4995
lclavicle -3.60297e-015 -4.37326e-015
lhumerus -36.4426 14.2972 70.973
lradius 30.2851
lwrist -5.28126
lhand -21.6651 27.5903
lfingers 7.12502
lthumb 4.73212 57.5174
rfemur -2.15105 -2.37815 23.4956
rtibia 23.2129
rfoot -16.7942 9.684
rtoes -4.39502
lfemur -18.1586 -2.76757 -15.9036
ltibia 56.7872
lfoot -1.83545 -20.3112
ltoes 3.93021
2876
root -11.0318 17.7773 15.6617 -584.825 98.1107 -222.227
lowerback 11.9962 2.5303 3.02998
upperback 1.57949 3.88783 1.25899
thorax -4.94774 1.89867 -1.00853
lowerneck -19.6842 -2.58312 -8.31531
upperneck 32.5188 -1.19343 3.36488
head 14.6354 -0.814444 2.67885
rclavicle -3.47873e-015 1.25234e-014
rhumerus -33.6436 -6.23693 -78.7036
rradius 31.5164
rwrist 2.39137
rhand -18.7176 7.09644
rfingers 7.12502
rthumb 7.57777 -22.7478
lclavicle -3.47873e-015 1.25234e-014
lhumerus -36.5474 14.0044 70.7684
lradius 30.1194
lwrist -5.01913
lhand -21.1641 27.3024
lfingers 7.12502
lthumb 5.21586 57.2183
rfemur -1.73877 -2.55078 23.5912
rtibia 22.9718
rfoot -16.7206 9.04891
rtoes -3.51034
lfemur -18.8826 -2.27524 -15.9747
ltibia 56.5671
lfoot -3.38916 -18.5559
ltoes 2.55278
2877
root -10.9698 17.7785 15.6879 -587.736 97.5453 -225.197
lowerback 12.0068 2.57502 3.09389
upperback 1.55891 3.94815 1.12839
thorax -4.95935 1.9252 -1.19072
lowerneck -18.8006 -2.39139 -8.57808
upperneck 31.5505 -1.16595 4.0286
head 14.0051 -0.731233 2.9687
rclavicle -4.16205e-014 6.36111e-015
rhumerus -33.3581 -6.68753 -78.5833
rradius 31.478
rwrist 2.4584
rhand -18.8475 6.94127
rfingers 7.12502
rthumb 7.45232 -22.9075
lclavicle -4.16205e-014 6.36111e-015
lhumerus -36.6875 13.7224 70.5772
lradius 29.9451
lwrist -5.17801
lhand -20.838 27.308
lfingers 7.12502
lthumb 5.5308 57.2158
rfemur -1.39747 -2.68217 23.6101
rtibia 22.755
rfoot -16.689 8.43929
rtoes -2.7168
lfemur -19.6221 -1.6593 -16.1824
ltibia 56.1639
lfoot -4.9377 -16.9016
ltoes -0.567292
2878
root -10.9065 17.7808 15.7165 -591.093 96.9562 -228.661
lowerback 11.9742 2.61422 3.02706
upperback 1.52336 3.98629 1.0634
thorax -4.97689 1.9435 -1.22638
lowerneck -18.3258 -2.30459 -8.80384
upperneck 31.0187 -1.1419 4.39131
head 13.6699 -0.691639 3.13895
rclavicle 6.3139e-014 2.98177e-015
rhumerus -33.061 -7.3051 -78.3142
rradius 31.3549
rwrist 2.87612
rhand -18.6178 7.2346
rfingers 7.12502
rthumb 7.67404 -22.6062
lclavicle 6.3139e-014 2.98177e-015
lhumerus -36.8655 13.2884 70.5768
lradius 29.7725
lwrist -5.25555
lhand -20.3634 27.2346
lfingers 7.12502
lthumb 5.98897 57.13
rfemur -1.14477 -2.93904 23.5898
rtibia 22.5642
rfoot -16.8548 7.78
rtoes -4.07324
lfemur -20.3682 -1.06261 -16.3942
ltibia 55.6125
lfoot -6.32871 -15.46
ltoes -3.34108
2879
root -10.8382 17.788 15.7431 -595.315 96.4192 -232.976
lowerback 11.8998 2.62666 3.00275
upperback 1.49917 3.99383 1.01558
thorax -4.95891 1.9471 -1.26043
lowerneck -18.3146 -2.30107 -8.83038
upperneck 31.019 -1.13285 4.42515
head 13.6673 -0.683682 3.1593
rclavicle 3.35449e-015 -8.94531e-015
rhumerus -32.8643 -7.40428 -78.1996
rradius 31.4125
rwrist 2.87339
rhand -18.3563 7.32107
rfingers 7.12502
rthumb 7.92648 -22.5103
lclavicle 3.35449e-015 -8.94531e-015
lhumerus -37.075 12.8839 70.6093
lradius 29.5938
lwrist -5.24616
lhand -20.1778 26.9297
lfingers 7.12502
lthumb 6.16816 56.8199
rfemur -0.879569 -3.4235 23.5704
rtibia 22.4216
rfoot -17.1275 7.19457
rtoes -7.43812
lfemur -21.0176 -0.685842 -16.493
ltibia 54.9242
lfoot -6.94323 -14.4302
ltoes -1.13671
2880
root -10.7704 17.8003 15.767 -600.291 96.0202 -238.026
lowerback 11.9243 2.64594 3.06627
upperback 1.43825 4.02781 0.987923
thorax -5.02881 1.95988 -1.33324
lowerneck -18.348 -2.32416 -9.00876
upperneck 31.1195 -1.15329 4.61175
head 13.7225 -0.685851 3.26681
rclavicle 3.96575e-014 3.18055e-015
rhumerus -32.7705 -7.20411 -78.1888
rradius 31.5909
rwrist 2.51266
rhand -18.5132 7.21572
rfingers 7.12502
rthumb 7.77499 -22.6213
lclavicle 3.96575e-014 3.18055e-015
lhumerus -37.3594 12.7637 70.5497
lradius 29.4238
lwrist -5.62415
lhand -20.2448 27.0501
lfingers 7.12502
lthumb 6.10347 56.9422
rfemur -0.55019 -3.61414 23.6382
rtibia 22.2766
rfoot -17.1774 6.79896
rtoes -8.13717
lfemur -21.5901 -0.326239 -16.5045
ltibia 54.1221
lfoot -7.21553 -13.4111
ltoes 2.31932
2881
root -10.7066 17.8095 15.7879 -605.759 95.69 -243.543
lowerback 12.024 2.68988 3.17176
upperback 1.40151 4.10275 0.949914
thorax -5.10952 1.99211 -1.45015
lowerneck -18.4903 -2.4343 -9.4069
upperneck 31.237 -1.29826 5.03416
head 13.8244 -0.736983 3.48899
rclavicle -3.19298e-014 1.0138e-014
rhumerus -32.7076 -6.89411 -78.2176
rradius 31.9584
rwrist 1.87158
rhand -18.7288 7.11559
rfingers 7.12502
rthumb 7.56693 -22.7291
lclavicle -3.19298e-014 1.0138e-014
lhumerus -37.5521 12.5793 70.5457
lradius 29.2847
lwrist -6.14691
lhand -20.5882 26.9755
lfingers 7.12502
lthumb 5.77189 56.8769
rfemur -0.166818 -3.47368 23.718
rtibia 22.0841
rfoot -17.0717 6.41223
rtoes -5.6339
lfemur -22.0883 -0.0557589 -16.6424
ltibia 53.2025
lfoot -8.11744 -11.8567
ltoes 0.424413
